P2
# CREATOR: GIMP PNM Filter Version 1.1
64 64
255
0
255
0
255
0
255
0
255
17
255
17
255
17
255
17
255
34
255
34
255
34
255
34
255
51
255
51
255
51
255
51
255
68
255
68
255
68
255
68
255
85
255
85
255
85
255
85
255
102
255
102
255
102
255
102
255
119
255
119
255
119
255
119
255
255
0
255
0
255
0
255
0
255
17
255
17
255
17
255
17
255
34
255
34
255
34
255
34
255
51
255
51
255
51
255
51
255
68
255
68
255
68
255
68
255
85
255
85
255
85
255
85
255
102
255
102
255
102
255
102
255
119
255
119
255
119
255
119
0
255
0
255
0
255
0
255
17
255
17
255
17
255
17
255
34
255
34
255
34
255
34
255
51
255
51
255
51
255
51
255
68
255
68
255
68
255
68
255
85
255
85
255
85
255
85
255
102
255
102
255
102
255
102
255
119
255
119
255
119
255
119
255
255
0
255
0
255
0
255
0
255
17
255
17
255
17
255
17
255
34
255
34
255
34
255
34
255
51
255
51
255
51
255
51
255
68
255
68
255
68
255
68
255
85
255
85
255
85
255
85
255
102
255
102
255
102
255
102
255
119
255
119
255
119
255
119
0
255
0
255
0
255
0
255
17
255
17
255
17
255
17
255
34
255
34
255
34
255
34
255
51
255
51
255
51
255
51
255
68
255
68
255
68
255
68
255
85
255
85
255
85
255
85
255
102
255
102
255
102
255
102
255
119
255
119
255
119
255
119
255
255
0
255
0
255
0
255
0
255
17
255
17
255
17
255
17
255
34
255
34
255
34
255
34
255
51
255
51
255
51
255
51
255
68
255
68
255
68
255
68
255
85
255
85
255
85
255
85
255
102
255
102
255
102
255
102
255
119
255
119
255
119
255
119
0
255
0
255
0
255
0
255
17
255
17
255
17
255
17
255
34
255
34
255
34
255
34
255
51
255
51
255
51
255
51
255
68
255
68
255
68
255
68
255
85
255
85
255
85
255
85
255
102
255
102
255
102
255
102
255
119
255
119
255
119
255
119
255
255
0
255
0
255
0
255
0
255
17
255
17
255
17
255
17
255
34
255
34
255
34
255
34
255
51
255
51
255
51
255
51
255
68
255
68
255
68
255
68
255
85
255
85
255
85
255
85
255
102
255
102
255
102
255
102
255
119
255
119
255
119
255
119
136
255
136
255
136
255
136
255
153
255
153
255
153
255
153
255
170
255
170
255
170
255
170
255
187
255
187
255
187
255
187
255
204
255
204
255
204
255
204
255
221
255
221
255
221
255
221
255
238
255
238
255
238
255
238
255
255
255
255
255
255
255
255
255
255
136
255
136
255
136
255
136
255
153
255
153
255
153
255
153
255
170
255
170
255
170
255
170
255
187
255
187
255
187
255
187
255
204
255
204
255
204
255
204
255
221
255
221
255
221
255
221
255
238
255
238
255
238
255
238
255
255
255
255
255
255
255
255
136
255
136
255
136
255
136
255
153
255
153
255
153
255
153
255
170
255
170
255
170
255
170
255
187
255
187
255
187
255
187
255
204
255
204
255
204
255
204
255
221
255
221
255
221
255
221
255
238
255
238
255
238
255
238
255
255
255
255
255
255
255
255
255
255
136
255
136
255
136
255
136
255
153
255
153
255
153
255
153
255
170
255
170
255
170
255
170
255
187
255
187
255
187
255
187
255
204
255
204
255
204
255
204
255
221
255
221
255
221
255
221
255
238
255
238
255
238
255
238
255
255
255
255
255
255
255
255
136
255
136
255
136
255
136
255
153
255
153
255
153
255
153
255
170
255
170
255
170
255
170
255
187
255
187
255
187
255
187
255
204
255
204
255
204
255
204
255
221
255
221
255
221
255
221
255
238
255
238
255
238
255
238
255
255
255
255
255
255
255
255
255
255
136
255
136
255
136
255
136
255
153
255
153
255
153
255
153
255
170
255
170
255
170
255
170
255
187
255
187
255
187
255
187
255
204
255
204
255
204
255
204
255
221
255
221
255
221
255
221
255
238
255
238
255
238
255
238
255
255
255
255
255
255
255
255
136
255
136
255
136
255
136
255
153
255
153
255
153
255
153
255
170
255
170
255
170
255
170
255
187
255
187
255
187
255
187
255
204
255
204
255
204
255
204
255
221
255
221
255
221
255
221
255
238
255
238
255
238
255
238
255
255
255
255
255
255
255
255
255
255
136
255
136
255
136
255
136
255
153
255
153
255
153
255
153
255
170
255
170
255
170
255
170
255
187
255
187
255
187
255
187
255
204
255
204
255
204
255
204
255
221
255
221
255
221
255
221
255
238
255
238
255
238
255
238
255
255
255
255
255
255
255
255
0
255
0
255
0
255
0
255
17
255
17
255
17
255
17
255
34
255
34
255
34
255
34
255
51
255
51
255
51
255
51
255
68
255
68
255
68
255
68
255
85
255
85
255
85
255
85
255
102
255
102
255
102
255
102
255
119
255
119
255
119
255
119
255
0
255
0
255
0
255
0
255
17
255
17
255
17
255
17
255
34
255
34
255
34
255
34
255
51
255
51
255
51
255
51
255
68
255
68
255
68
255
68
255
85
255
85
255
85
255
85
255
102
255
102
255
102
255
102
255
119
255
119
255
119
255
119
255
0
255
0
255
0
255
0
255
17
255
17
255
17
255
17
255
34
255
34
255
34
255
34
255
51
255
51
255
51
255
51
255
68
255
68
255
68
255
68
255
85
255
85
255
85
255
85
255
102
255
102
255
102
255
102
255
119
255
119
255
119
255
119
255
0
255
0
255
0
255
0
255
17
255
17
255
17
255
17
255
34
255
34
255
34
255
34
255
51
255
51
255
51
255
51
255
68
255
68
255
68
255
68
255
85
255
85
255
85
255
85
255
102
255
102
255
102
255
102
255
119
255
119
255
119
255
119
255
0
255
0
255
0
255
0
255
17
255
17
255
17
255
17
255
34
255
34
255
34
255
34
255
51
255
51
255
51
255
51
255
68
255
68
255
68
255
68
255
85
255
85
255
85
255
85
255
102
255
102
255
102
255
102
255
119
255
119
255
119
255
119
255
0
255
0
255
0
255
0
255
17
255
17
255
17
255
17
255
34
255
34
255
34
255
34
255
51
255
51
255
51
255
51
255
68
255
68
255
68
255
68
255
85
255
85
255
85
255
85
255
102
255
102
255
102
255
102
255
119
255
119
255
119
255
119
255
0
255
0
255
0
255
0
255
17
255
17
255
17
255
17
255
34
255
34
255
34
255
34
255
51
255
51
255
51
255
51
255
68
255
68
255
68
255
68
255
85
255
85
255
85
255
85
255
102
255
102
255
102
255
102
255
119
255
119
255
119
255
119
255
0
255
0
255
0
255
0
255
17
255
17
255
17
255
17
255
34
255
34
255
34
255
34
255
51
255
51
255
51
255
51
255
68
255
68
255
68
255
68
255
85
255
85
255
85
255
85
255
102
255
102
255
102
255
102
255
119
255
119
255
119
255
119
255
0
0
0
0
0
0
0
0
17
17
17
17
17
17
17
17
34
34
34
34
34
34
34
34
51
51
51
51
51
51
51
51
68
68
68
68
68
68
68
68
85
85
85
85
85
85
85
85
102
102
102
102
102
102
102
102
119
119
119
119
119
119
119
119
255
255
255
255
255
255
255
255
255
255
255
255
255
255
255
255
255
255
255
255
255
255
255
255
255
255
255
255
255
255
255
255
255
255
255
255
255
255
255
255
255
255
255
255
255
255
255
255
255
255
255
255
255
255
255
255
255
255
255
255
255
255
255
255
0
0
0
0
0
0
0
0
17
17
17
17
17
17
17
17
34
34
34
34
34
34
34
34
51
51
51
51
51
51
51
51
68
68
68
68
68
68
68
68
85
85
85
85
85
85
85
85
102
102
102
102
102
102
102
102
119
119
119
119
119
119
119
119
255
255
255
255
255
255
255
255
255
255
255
255
255
255
255
255
255
255
255
255
255
255
255
255
255
255
255
255
255
255
255
255
255
255
255
255
255
255
255
255
255
255
255
255
255
255
255
255
255
255
255
255
255
255
255
255
255
255
255
255
255
255
255
255
0
0
0
0
0
0
0
0
17
17
17
17
17
17
17
17
34
34
34
34
34
34
34
34
51
51
51
51
51
51
51
51
68
68
68
68
68
68
68
68
85
85
85
85
85
85
85
85
102
102
102
102
102
102
102
102
119
119
119
119
119
119
119
119
255
255
255
255
255
255
255
255
255
255
255
255
255
255
255
255
255
255
255
255
255
255
255
255
255
255
255
255
255
255
255
255
255
255
255
255
255
255
255
255
255
255
255
255
255
255
255
255
255
255
255
255
255
255
255
255
255
255
255
255
255
255
255
255
0
0
0
0
0
0
0
0
17
17
17
17
17
17
17
17
34
34
34
34
34
34
34
34
51
51
51
51
51
51
51
51
68
68
68
68
68
68
68
68
85
85
85
85
85
85
85
85
102
102
102
102
102
102
102
102
119
119
119
119
119
119
119
119
255
255
255
255
255
255
255
255
255
255
255
255
255
255
255
255
255
255
255
255
255
255
255
255
255
255
255
255
255
255
255
255
255
255
255
255
255
255
255
255
255
255
255
255
255
255
255
255
255
255
255
255
255
255
255
255
255
255
255
255
255
255
255
255
0
0
0
0
0
0
0
0
17
17
17
17
17
17
17
17
34
34
34
34
34
34
34
34
51
51
51
51
51
51
51
51
68
68
68
68
68
68
68
68
85
85
85
85
85
85
85
85
102
102
102
102
102
102
102
102
119
119
119
119
119
119
119
119
0
255
0
255
0
255
0
255
17
255
17
255
17
255
17
255
34
255
34
255
34
255
34
255
51
255
51
255
51
255
51
255
68
255
68
255
68
255
68
255
85
255
85
255
85
255
85
255
102
255
102
255
102
255
102
255
119
255
119
255
119
255
119
255
0
0
0
0
0
0
0
0
17
17
17
17
17
17
17
17
34
34
34
34
34
34
34
34
51
51
51
51
51
51
51
51
68
68
68
68
68
68
68
68
85
85
85
85
85
85
85
85
102
102
102
102
102
102
102
102
119
119
119
119
119
119
119
119
0
255
0
255
0
255
0
255
17
255
17
255
17
255
17
255
34
255
34
255
34
255
34
255
51
255
51
255
51
255
51
255
68
255
68
255
68
255
68
255
85
255
85
255
85
255
85
255
102
255
102
255
102
255
102
255
119
255
119
255
119
255
119
255
0
0
0
0
0
0
0
0
17
17
17
17
17
17
17
17
34
34
34
34
34
34
34
34
51
51
51
51
51
51
51
51
68
68
68
68
68
68
68
68
85
85
85
85
85
85
85
85
102
102
102
102
102
102
102
102
119
119
119
119
119
119
119
119
0
255
0
255
0
255
0
255
17
255
17
255
17
255
17
255
34
255
34
255
34
255
34
255
51
255
51
255
51
255
51
255
68
255
68
255
68
255
68
255
85
255
85
255
85
255
85
255
102
255
102
255
102
255
102
255
119
255
119
255
119
255
119
255
0
0
0
0
0
0
0
0
17
17
17
17
17
17
17
17
34
34
34
34
34
34
34
34
51
51
51
51
51
51
51
51
68
68
68
68
68
68
68
68
85
85
85
85
85
85
85
85
102
102
102
102
102
102
102
102
119
119
119
119
119
119
119
119
0
255
0
255
0
255
0
255
17
255
17
255
17
255
17
255
34
255
34
255
34
255
34
255
51
255
51
255
51
255
51
255
68
255
68
255
68
255
68
255
85
255
85
255
85
255
85
255
102
255
102
255
102
255
102
255
119
255
119
255
119
255
119
255
0
17
0
17
0
17
0
17
17
17
17
17
17
17
17
17
17
51
17
51
17
51
17
51
51
68
51
68
51
68
51
68
68
85
68
85
68
85
68
85
85
102
85
102
85
102
85
102
102
119
102
119
102
119
102
119
119
136
119
136
119
136
119
136
0
17
0
17
0
17
0
17
17
17
17
17
17
17
17
17
17
51
17
51
17
51
17
51
51
68
51
68
51
68
51
68
68
85
68
85
68
85
68
85
85
102
85
102
85
102
85
102
102
119
102
119
102
119
102
119
119
136
119
136
119
136
119
136
0
17
0
17
0
17
0
17
17
17
17
17
17
17
17
17
17
51
17
51
17
51
17
51
51
68
51
68
51
68
51
68
68
85
68
85
68
85
68
85
85
102
85
102
85
102
85
102
102
119
102
119
102
119
102
119
119
136
119
136
119
136
119
136
0
17
0
17
0
17
0
17
17
17
17
17
17
17
17
17
17
51
17
51
17
51
17
51
51
68
51
68
51
68
51
68
68
85
68
85
68
85
68
85
85
102
85
102
85
102
85
102
102
119
102
119
102
119
102
119
119
136
119
136
119
136
119
136
0
17
0
17
0
17
0
17
17
17
17
17
17
17
17
17
17
51
17
51
17
51
17
51
51
68
51
68
51
68
51
68
68
85
68
85
68
85
68
85
85
102
85
102
85
102
85
102
102
119
102
119
102
119
102
119
119
136
119
136
119
136
119
136
0
17
0
17
0
17
0
17
17
17
17
17
17
17
17
17
17
51
17
51
17
51
17
51
51
68
51
68
51
68
51
68
68
85
68
85
68
85
68
85
85
102
85
102
85
102
85
102
102
119
102
119
102
119
102
119
119
136
119
136
119
136
119
136
0
17
0
17
0
17
0
17
17
17
17
17
17
17
17
17
17
51
17
51
17
51
17
51
51
68
51
68
51
68
51
68
68
85
68
85
68
85
68
85
85
102
85
102
85
102
85
102
102
119
102
119
102
119
102
119
119
136
119
136
119
136
119
136
0
17
0
17
0
17
0
17
17
17
17
17
17
17
17
17
17
51
17
51
17
51
17
51
51
68
51
68
51
68
51
68
68
85
68
85
68
85
68
85
85
102
85
102
85
102
85
102
102
119
102
119
102
119
102
119
119
136
119
136
119
136
119
136
255
255
255
255
255
255
255
255
255
255
255
255
255
255
255
255
255
255
255
255
255
255
255
255
255
255
255
255
255
255
255
255
255
255
255
255
255
255
255
255
255
255
255
255
255
255
255
255
255
255
255
255
255
255
255
255
255
255
255
255
255
255
255
255
255
255
255
255
255
255
255
255
255
255
255
255
255
255
255
255
255
255
255
255
255
255
255
255
255
255
255
255
255
255
255
255
255
255
255
255
255
255
255
255
255
255
255
255
255
255
255
255
255
255
255
255
255
255
255
255
255
255
255
255
255
255
255
255
255
255
255
255
255
255
255
255
255
255
255
255
255
255
255
255
255
255
255
255
255
255
255
255
255
255
255
255
255
255
255
255
255
255
255
255
255
255
255
255
255
255
255
255
255
255
255
255
255
255
255
255
255
255
255
255
255
255
255
255
255
255
255
255
255
255
255
255
255
255
255
255
255
255
255
255
255
255
255
255
255
255
255
255
255
255
255
255
255
255
255
255
255
255
255
255
255
255
255
255
255
255
255
255
255
255
255
255
255
255
255
255
255
255
255
255
255
255
255
255
255
255
255
255
255
255
255
255
255
255
255
255
255
255
255
255
255
255
255
255
255
255
255
255
255
255
255
255
255
255
255
255
255
255
255
255
255
255
255
255
255
255
255
255
255
255
255
255
255
255
255
255
255
255
255
255
255
255
255
255
255
255
255
255
255
255
255
255
255
255
255
255
255
255
255
255
255
255
255
255
255
255
255
255
255
255
255
255
255
255
255
255
255
255
255
255
255
255
255
255
255
255
255
255
255
255
255
255
255
255
255
255
255
255
255
255
255
255
255
255
255
255
255
255
255
255
255
255
255
255
255
255
255
255
255
255
255
255
255
255
255
255
255
255
255
255
255
255
255
255
255
255
255
255
255
255
255
255
255
255
255
255
255
255
255
255
255
255
255
255
255
255
255
255
255
255
255
255
255
255
255
255
255
255
255
255
255
255
255
255
255
255
255
255
255
255
255
255
255
255
255
255
255
255
255
255
255
255
255
255
255
255
255
255
255
255
255
255
255
255
255
255
255
255
255
255
255
255
255
255
255
255
255
255
255
255
255
255
255
255
255
255
255
255
255
255
255
255
255
255
255
255
255
255
255
255
255
255
255
255
255
255
255
255
255
0
0
0
0
0
0
255
255
255
255
255
255
255
255
255
255
255
255
255
255
255
255
255
255
255
255
255
255
255
255
255
255
255
255
255
255
255
255
255
255
255
255
255
255
255
255
255
255
255
255
255
255
255
255
255
255
255
255
255
255
255
255
255
0
255
255
255
255
255
255
0
255
255
255
255
255
255
255
255
255
255
255
255
255
255
255
255
255
255
255
255
255
255
255
255
255
255
255
255
255
255
255
255
255
255
255
255
255
255
255
255
255
255
255
255
255
255
255
255
255
255
255
255
255
255
255
255
0
255
0
255
255
0
255
0
255
255
255
255
255
255
255
255
255
255
255
255
255
255
255
255
255
255
255
255
255
255
255
255
255
255
255
255
255
255
255
255
255
255
255
255
255
255
255
255
255
255
255
255
255
255
255
255
255
255
255
255
255
255
255
255
0
255
255
255
255
255
255
0
255
255
255
255
255
255
255
255
255
255
255
255
255
255
255
255
255
255
255
255
255
255
255
255
255
255
255
255
255
255
255
255
255
255
255
255
255
255
255
255
255
255
255
255
255
255
255
255
255
255
255
255
255
255
255
255
0
255
0
255
255
0
255
0
255
255
255
255
255
255
255
255
255
255
255
255
255
255
255
255
255
255
255
255
255
255
255
255
255
255
255
255
255
255
255
255
255
255
255
255
255
255
255
255
255
255
255
255
255
255
255
255
255
255
255
255
255
255
255
255
0
255
0
0
0
0
255
0
255
255
255
255
255
255
255
255
255
255
255
255
255
255
255
255
255
255
255
255
255
255
255
255
255
255
255
255
255
255
255
255
255
255
255
255
255
255
255
255
255
255
255
255
255
255
255
255
255
255
255
255
255
255
255
255
0
255
255
255
255
255
255
0
255
255
255
255
255
255
255
255
255
255
255
255
255
255
255
255
255
255
255
255
255
255
255
255
255
255
255
255
255
255
255
255
255
255
255
255
255
255
255
255
255
255
255
255
255
255
255
255
255
255
255
255
255
255
255
255
255
0
0
0
0
0
0
255
255
255
255
255
255
255
255
255
255
255
255
255
255
255
255
255
255
255
255
255
255
255
255
255
255
255
255
255
255
255
255
255
255
255
255
255
255
255
255
255
255
255
255
255
255
255
255
255
255
255
255
255
255
255
255
255
